HIERARCHY
ROOT root
{
	OFFSET	0	13.1	24.9
	CHANNELS 6  Xposition Yposition Zposition Xrotation Yrotation Zrotation
	JOINT spine_1
	{
		OFFSET	0	9.99999	0
		CHANNELS 3  Xrotation Yrotation Zrotation
		JOINT spine_2
		{
			OFFSET	0	112	-10
			CHANNELS 3  Xrotation Yrotation Zrotation
			JOINT spine_3
			{
				OFFSET	0	206.5	19.3
				CHANNELS 3  Xrotation Yrotation Zrotation
				JOINT spine_4
				{
					OFFSET	0	110.4	14.6
					CHANNELS 3  Xrotation Yrotation Zrotation
					JOINT neck_1
					{
						OFFSET	0	71.8	-50.3
						CHANNELS 3  Xrotation Yrotation Zrotation
						JOINT neck_2
						{
							OFFSET	0	86.2	-25.8
							CHANNELS 3  Xrotation Yrotation Zrotation
							JOINT head_ee
							{
								OFFSET	0	179.8	-8.7
								CHANNELS 3  Xrotation Yrotation Zrotation
								End Site
								{
									OFFSET	1	0	0
								}
							}
						}
					}
					JOINT left_clavicle
					{
						OFFSET	-43.2	22.4	-70.8
						CHANNELS 3  Xrotation Yrotation Zrotation
						JOINT left_shoulder
						{
							OFFSET	-93.9	-5.79999	48.7
							CHANNELS 3  Xrotation Yrotation Zrotation
							JOINT left_elbow
							{
								OFFSET	-291.4	-30.8	15.2
								CHANNELS 3  Xrotation Yrotation Zrotation
								JOINT left_lowarm_twist
								{
									OFFSET	-110.7	-3.89999	13.6
									CHANNELS 3  Xrotation Yrotation Zrotation
									JOINT left_hand
									{
										OFFSET	-110.7	-3.89999	13.6
										CHANNELS 3  Xrotation Yrotation Zrotation
										JOINT left_ee
										{
											OFFSET	-80.8	-5.10001	12.1
											CHANNELS 3  Xrotation Yrotation Zrotation
											End Site
											{
												OFFSET	1	0	0
											}
										}
									}
								}
							}
						}
					}
					JOINT right_clavicle
					{
						OFFSET	43.2	22.4	-70.8
						CHANNELS 3  Xrotation Yrotation Zrotation
						JOINT right_shoulder
						{
							OFFSET	93.9	-5.79999	48.7
							CHANNELS 3  Xrotation Yrotation Zrotation
							JOINT right_elbow
							{
								OFFSET	291.4	-30.8	15.2
								CHANNELS 3  Xrotation Yrotation Zrotation
								JOINT right_lowarm_twist
								{
									OFFSET	110.7	-3.89999	13.6
									CHANNELS 3  Xrotation Yrotation Zrotation
									JOINT right_hand
									{
										OFFSET	110.7	-3.89999	13.6
										CHANNELS 3  Xrotation Yrotation Zrotation
										JOINT right_ee
										{
											OFFSET	80.8	-5.10001	12.1
											CHANNELS 3  Xrotation Yrotation Zrotation
											End Site
											{
												OFFSET	1	0	0
											}
										}
									}
								}
							}
						}
					}
				}
			}
		}
	}
	JOINT left_hip
	{
		OFFSET	-82.8	-127.5	0.300001
		CHANNELS 3  Xrotation Yrotation Zrotation
		JOINT left_knee
		{
			OFFSET	-28.2	-396.7	2.2
			CHANNELS 3  Xrotation Yrotation Zrotation
			JOINT left_ankle
			{
				OFFSET	-11.7	-411.3	35.4
				CHANNELS 3  Xrotation Yrotation Zrotation
				JOINT left_toes
				{
					OFFSET	0	-60	-88.6
					CHANNELS 3  Xrotation Yrotation Zrotation
					JOINT left_foot_ee
					{
						OFFSET	-22.5	-16.5	-42.2
						CHANNELS 3  Xrotation Yrotation Zrotation
						End Site
						{
							OFFSET	1	0	0
						}
					}
				}
			}
		}
	}
	JOINT right_hip
	{
		OFFSET	82.8	-127.5	0.300001
		CHANNELS 3  Xrotation Yrotation Zrotation
		JOINT right_knee
		{
			OFFSET	28.2	-396.7	2.2
			CHANNELS 3  Xrotation Yrotation Zrotation
			JOINT right_ankle
			{
				OFFSET	11.7	-411.3	35.4
				CHANNELS 3  Xrotation Yrotation Zrotation
				JOINT right_toes
				{
					OFFSET	0	-60	-88.6
					CHANNELS 3  Xrotation Yrotation Zrotation
					JOINT right_foot_ee
					{
						OFFSET	22.5	-16.5	-42.2
						CHANNELS 3  Xrotation Yrotation Zrotation
						End Site
						{
							OFFSET	1	0	0
						}
					}
				}
			}
		}
	}
}
MOTION
Frames: 15
Frame Time: 0.02
1089.87 727.134 -1079.96 -155.025 -66.4281 -167.179 1.61652 0.436307 2.51509 1.62 0.275434 2.53774 1.63253 -0.191686 2.54543 1.62356 0.21259 2.54377 2.66341 8.79668 -4.40088 3.16191 19.0966 -4.31313 -0.0 0.0 -0.0 3.72619 23.8356 7.83705 -42.1484 -55.5008 53.6268 0.504469 -14.031 0.0620798 -62.0465 -5.5383 5.16032 1.43652 5.57168 11.8288 -0.0 0.0 -0.0 7.0481 -7.74597 -13.5532 -7.31346 22.758 -71.4862 1.92654 43.6574 -0.771742 59.2118 1.70426 7.03474 1.1631 -1.71293 -8.48251 0.0 0.0 0.0 44.3527 -25.4389 23.8744 -55.6817 -1.75217 8.03278 1.02094 20.7247 -0.152568 -35.0428 0.0 0.0 -0.0 0.0 -0.0 27.6686 9.51486 9.83995 -27.1917 -0.141344 -4.13147 0.188576 0.599236 0.0279285 40.18 -0.0 -0.0 0.0 0.0 0.0 
1124.94 726.958 -1050.76 -171.532 -59.5729 175.234 0.32909 0.587122 3.8619 0.337321 0.340381 3.89137 0.36403 -0.460898 3.87896 0.343072 0.157012 3.90305 -1.42658 10.5358 3.91281 -1.27141 15.8508 5.42513 -0.0 0.0 -0.0 2.63711 22.9522 6.31498 -29.9096 -29.009 66.4336 0.57759 -15.9671 0.0810066 -71.8744 -6.78541 5.31514 -0.151116 11.4914 3.78274 -0.0 0.0 -0.0 8.01395 17.0764 -15.2057 -10.4997 -15.9316 -85.7747 1.53243 37.2003 -0.515749 55.7457 1.41015 6.70191 -5.67806 -26.828 21.3997 0.0 0.0 0.0 36.849 -5.20542 13.3076 -57.9093 -1.97851 8.2911 -25.3869 24.9503 3.97861 18.9678 -0.0 -0.0 -0.0 0.0 -0.0 11.0262 8.36673 11.8665 -13.0761 -0.313866 -1.97782 8.73867 13.5667 1.34092 39.9949 -0.0 -0.0 0.0 0.0 0.0 
1141.59 728.091 -1042.81 -172.456 -58.4758 174.186 -0.071514 0.699038 4.15903 -0.0619976 0.433211 4.195 -0.0249413 -0.460406 4.1921 -0.0493981 0.20683 4.2122 -2.7605 10.7084 3.20825 -2.62717 16.9475 4.84639 -0.0 0.0 -0.0 2.44803 23.6292 6.07731 -29.291 -28.5007 66.9006 0.578081 -15.98 0.0811417 -71.395 -6.72416 5.3126 -0.202412 10.5681 3.07766 -0.0 0.0 -0.0 7.60532 13.6278 -14.5155 -9.66589 -14.9993 -85.4863 1.48319 36.3035 -0.486288 53.3359 1.21785 6.46041 -5.50516 -27.5173 19.8207 0.0 0.0 0.0 35.7993 -4.72041 13.1888 -53.2464 -1.5165 7.7407 -24.5942 25.7696 3.87112 20.751 -0.0 -0.0 -0.0 0.0 -0.0 9.57974 7.11295 12.8125 -12.8119 -0.31202 -1.93733 10.1144 16.4824 1.57735 39.8928 -0.0 -0.0 0.0 0.0 0.0 
1157.05 725.528 -1037.64 -173.714 -57.7633 172.988 -0.156475 0.811963 4.26754 -0.146508 0.539022 4.31045 -0.0999111 -0.386728 4.32674 -0.125901 0.300793 4.33355 -0.536764 10.6031 0.409742 -0.303274 18.6536 1.60216 -0.0 0.0 -0.0 2.45741 24.5558 6.12359 -29.1313 -29.036 66.7837 0.519277 -14.4259 0.0657197 -70.6692 -6.63146 5.30776 -0.282131 7.63455 1.34649 -0.0 0.0 -0.0 7.04731 12.8746 -13.3544 -8.95763 -16.7066 -85.8666 1.42701 35.2544 -0.453441 50.3304 0.992564 6.14834 -5.40855 -27.8557 18.9893 0.0 0.0 0.0 32.5119 -0.785677 11.2306 -47.9408 -1.0476 7.07185 -18.8801 22.8661 2.9259 20.0756 -0.0 -0.0 -0.0 0.0 -0.0 8.82539 5.7825 13.5638 -13.9977 -0.318844 -2.11914 12.0032 18.7082 1.8918 40.1692 -0.0 -0.0 0.0 0.0 0.0 
1168.8 726.589 -1028.93 -174.199 -57.4236 172.244 -0.326981 0.925771 4.3494 -0.316693 0.647406 4.39936 -0.26 -0.31179 4.43573 -0.287234 0.391958 4.42938 0.952709 10.4605 -2.53367 1.36924 20.6216 -1.83648 -0.0 0.0 -0.0 2.39273 24.5017 6.03461 -29.0577 -29.7764 66.6198 0.463641 -12.9352 0.0525601 -69.7875 -6.5189 5.3003 0.102493 3.45924 2.12804 -0.0 0.0 -0.0 6.83221 9.82281 -13.0402 -9.88908 -15.1672 -85.9805 1.37633 34.284 -0.424537 46.7041 0.74309 5.75691 -5.16443 -27.4676 17.857 0.0 0.0 0.0 27.0183 9.12699 7.94518 -37.5045 -0.315687 5.64575 -12.6471 10.1691 1.89211 16.9969 -0.0 -0.0 -0.0 0.0 -0.0 8.06972 3.9864 13.941 -14.3082 -0.320009 -2.16675 14.4475 22.3656 2.33023 40.0955 -0.0 -0.0 0.0 0.0 0.0 
1182.22 724.146 -1023.62 -174.404 -58.1787 171.916 -0.584932 0.949381 4.59649 -0.57342 0.655295 4.64743 -0.511689 -0.378009 4.67809 -0.54203 0.36472 4.67914 2.45813 10.2198 -5.33003 3.15035 22.3795 -5.25523 -0.0 0.0 -0.0 2.35904 24.2421 5.97929 -28.7953 -30.7728 65.706 0.433908 -12.1311 0.0461078 -69.0324 -6.42261 5.29252 0.563999 -1.10084 3.31375 -0.0 0.0 -0.0 6.48023 5.37413 -12.4637 -11.0778 -12.924 -86.6238 1.40986 34.9285 -0.443579 43.1037 0.520462 5.35361 -4.8592 -26.9849 16.4334 0.0 0.0 0.0 20.3041 23.6276 7.40811 -21.2745 0.278314 3.23415 -9.89818 -5.08953 1.51919 11.0231 -0.0 -0.0 -0.0 0.0 -0.0 6.48785 2.09349 14.4549 -14.0025 -0.318864 -2.11987 18.4793 27.1773 3.07774 37.5719 -0.0 -0.0 0.0 0.0 0.0 
1195.65 721.383 -1018.54 -174.454 -58.6705 172.261 -0.996355 0.822776 4.5993 -0.984746 0.528767 4.64221 -0.932281 -0.534894 4.64151 -0.962274 0.204033 4.66771 1.97319 11.4486 -5.0879 2.72974 24.3747 -4.81952 -0.0 0.0 -0.0 2.33421 24.151 5.94209 -28.9527 -31.8929 64.9005 0.54793 -15.186 0.0730418 -67.1602 -6.18426 5.26774 0.749469 -5.19468 2.8519 -0.0 0.0 -0.0 6.14422 5.55963 -11.7685 -10.9026 -11.2327 -87.9975 1.45037 35.694 -0.466997 41.3147 0.419405 5.14828 -4.77248 -25.927 16.677 0.0 0.0 0.0 20.9493 29.1256 8.06797 -10.6327 0.289674 1.60372 -7.3995 -8.57004 1.15048 8.5165 -0.0 -0.0 -0.0 0.0 -0.0 7.18691 -1.85854 14.6534 -14.3841 -0.320254 -2.1784 18.4503 27.05 3.06875 36.3763 -0.0 -0.0 0.0 0.0 0.0 
1210.35 719.662 -1016.11 -172.797 -60.485 174.396 -0.727488 0.685395 4.40034 -0.716809 0.404283 4.43494 -0.677744 -0.589879 4.41413 -0.704906 0.113938 4.45184 1.2985 10.8516 -6.73712 2.11837 24.7367 -6.56329 -0.0 0.0 -0.0 2.2523 24.0774 5.82795 -28.7738 -32.5759 65.5301 0.615002 -16.9437 0.0916045 -67.436 -6.21932 5.27188 0.758655 -4.91262 3.03254 -0.0 0.0 -0.0 5.94186 7.5778 -11.2732 -11.3833 -13.1134 -88.3708 1.50572 36.7165 -0.499695 41.7984 0.446096 5.20411 -4.83334 -25.424 17.3929 0.0 0.0 0.0 20.0925 28.7949 8.93679 -7.59743 0.237444 1.14095 -5.28262 -9.30758 0.821474 8.63831 -0.0 -0.0 -0.0 0.0 -0.0 7.09582 -1.00574 14.605 -15.386 -0.32205 -2.33211 18.2206 26.8568 3.02742 36.1662 -0.0 -0.0 0.0 0.0 0.0 
1227.26 715.906 -1005.11 -172.365 -62.3053 175.254 -0.239436 0.406004 4.43819 -0.22849 0.123054 4.45499 -0.213116 -0.833821 4.37815 -0.239831 -0.132627 4.45472 2.21401 11.004 -8.04151 3.27314 26.0248 -8.265 -0.0 0.0 -0.0 2.26444 23.715 5.82917 -28.9548 -32.5221 65.0937 0.612542 -16.8798 0.090889 -67.2635 -6.19739 5.26931 0.637595 -6.35559 1.6068 -0.0 0.0 -0.0 5.73322 12.8294 -10.5549 -11.6537 -14.2666 -88.7278 1.49768 36.5696 -0.494896 42.9229 0.509963 5.33301 -4.90731 -27.0765 16.6471 0.0 0.0 0.0 18.0176 29.8284 10.0728 1.72739 -0.0749772 -0.254454 -4.7278 -12.7493 0.750271 9.40991 -0.0 -0.0 -0.0 0.0 -0.0 6.22878 -3.95426 14.5008 -15.3716 -0.322044 -2.32989 21.0916 30.8723 3.62667 34.2784 -0.0 -0.0 0.0 0.0 0.0 
1250.78 708.722 -991.734 -173.629 -60.928 174.482 -0.141377 0.601657 4.49345 -0.130203 0.314807 4.52255 -0.099254 -0.651534 4.48651 -0.127327 0.0644472 4.53302 4.04086 11.0866 -7.6478 5.20569 25.7136 -8.25993 -0.0 0.0 -0.0 2.26637 23.8685 5.8383 -28.6023 -31.9907 64.6185 0.611472 -16.852 0.0905784 -67.1205 -6.17921 5.26713 0.645277 -5.59046 1.982 -0.0 0.0 -0.0 5.54846 16.1083 -9.93496 -11.6461 -14.6776 -90.2236 1.42768 35.2671 -0.453827 42.6187 0.492435 5.29827 -4.91103 -26.8982 16.797 0.0 0.0 0.0 18.7812 30.6283 9.6471 5.30417 -0.254476 -0.773686 -2.6455 -9.58712 0.409727 10.5722 -0.0 -0.0 -0.0 0.0 -0.0 4.53311 -4.86118 14.6981 -16.0317 -0.321783 -2.43117 20.32 29.9384 3.46672 34.2547 -0.0 -0.0 0.0 0.0 0.0 
1262.24 706.086 -983.323 -173.636 -60.4012 174.346 0.17059 0.59564 4.5611 0.182108 0.304511 4.58968 0.211788 -0.651149 4.55353 0.182872 0.075378 4.59913 4.57499 11.6483 -7.8576 5.89082 26.8137 -8.63904 -0.0 0.0 -0.0 2.03892 23.2503 5.49779 -29.0697 -31.3936 64.8914 0.592842 -16.3664 0.0852532 -67.1251 -6.17979 5.2672 0.466246 -4.47408 1.24563 -0.0 0.0 -0.0 5.61942 16.6869 -10.0439 -12.6965 -16.5596 -91.7062 1.41602 35.0458 -0.447111 42.0031 0.457533 5.22767 -4.87309 -25.5926 17.5093 0.0 0.0 0.0 19.3203 31.4884 9.59349 7.57439 -0.385128 -1.09717 0.767027 -10.2796 -0.118258 11.716 -0.0 -0.0 -0.0 0.0 -0.0 3.8297 -4.67531 14.7641 -16.1002 -0.32169 -2.44168 21.882 30.7434 3.73806 34.1612 -0.0 -0.0 0.0 0.0 0.0 
1286.12 703.554 -977.211 -172.617 -58.8902 175.413 0.41383 0.753154 4.47884 0.424865 0.466925 4.51758 0.466372 -0.45668 4.51863 0.437985 0.261927 4.53405 5.04032 11.9126 -6.5362 6.23902 26.0933 -7.17762 -0.0 0.0 -0.0 1.7017 23.4132 5.04222 -27.2938 -30.5976 66.0622 0.612095 -16.8682 0.0907592 -67.0842 -6.1746 5.26657 0.241673 -2.45611 0.584521 -0.0 0.0 -0.0 6.5689 20.0511 -11.8343 -14.5133 -13.8342 -90.4723 1.30421 32.8636 -0.38465 41.6862 0.439863 5.19118 -4.79683 -24.0896 18.1167 0.0 0.0 0.0 20.3806 32.9884 9.22843 8.01568 -0.412011 -1.15944 -0.479467 -4.76842 0.0721523 12.6429 -0.0 -0.0 -0.0 0.0 -0.0 2.90563 -5.78966 14.7982 -15.9784 -0.321847 -2.42301 21.6148 28.7232 3.60303 33.9934 -0.0 -0.0 0.0 0.0 0.0 
1306.47 701.814 -974.703 -172.208 -56.2255 175.841 0.61735 0.728451 4.39811 0.627997 0.447394 4.43545 0.666533 -0.443684 4.43582 0.63918 0.261724 4.45024 4.68899 11.9506 -8.55883 6.1695 27.9184 -9.50988 -0.0 0.0 -0.0 2.15586 23.8627 5.68736 -26.747 -29.7873 66.9919 0.551102 -15.2698 0.0738751 -67.1148 -6.17849 5.26704 0.0662405 -0.330726 0.30326 -0.0 0.0 -0.0 6.21579 18.5806 -11.1854 -16.1659 -13.8942 -90.7986 1.30964 32.9721 -0.387601 41.3166 0.419511 5.14851 -4.54177 -22.3789 17.7386 0.0 0.0 0.0 21.231 34.4298 8.46565 8.19525 -0.423088 -1.18473 1.99565 -1.57964 -0.295004 15.0935 -0.0 -0.0 -0.0 0.0 -0.0 2.25686 -4.72431 15.4121 -16.0765 -0.321723 -2.43805 19.2377 28.4708 3.24124 33.1165 -0.0 -0.0 0.0 0.0 0.0 
1324.35 700.04 -967.404 -171.785 -52.7877 175.959 0.715054 0.723355 4.64727 0.726964 0.426504 4.68377 0.765773 -0.505631 4.67591 0.735353 0.238346 4.69707 3.57914 13.3755 -6.51488 4.86053 28.7619 -6.78937 -0.0 0.0 -0.0 1.63464 24.089 4.99117 -25.2196 -29.0128 68.4337 0.483049 -13.4574 0.0569909 -67.1801 -6.18679 5.26805 -0.207711 2.73228 -0.228533 -0.0 0.0 -0.0 5.80005 21.9443 -9.99732 -17.612 -9.76463 -92.8261 1.28494 32.4761 -0.374249 40.8238 0.392802 5.0914 -4.25828 -19.8303 17.6595 0.0 0.0 0.0 22.4154 37.0968 7.77711 7.9801 -0.409825 -1.15443 5.92267 5.43517 -0.853969 19.2015 -0.0 -0.0 -0.0 0.0 -0.0 2.40457 -4.23583 16.1725 -15.5088 -0.322085 -2.35096 17.8183 29.1655 3.05258 32.0013 -0.0 -0.0 0.0 0.0 0.0 
1342.22 699.484 -971.122 -170.478 -48.7015 176.968 1.13329 0.699169 4.61924 1.14506 0.404144 4.65426 1.18039 -0.488106 4.64623 1.15037 0.25098 4.66501 1.74392 14.1839 -5.75141 2.85761 29.7603 -5.39924 -0.0 0.0 -0.0 1.78015 24.2838 5.19912 -22.3165 -27.1436 70.2721 0.49845 -13.8701 0.0606289 -67.1591 -6.18412 5.26772 -0.648374 7.75695 -0.976228 -0.0 0.0 -0.0 7.00657 23.5045 -12.4873 -19.9164 -5.6955 -91.421 1.23997 31.5588 -0.350407 40.0982 0.354381 5.00693 -3.88244 -16.0162 17.6465 0.0 0.0 0.0 23.8465 39.8288 7.29318 8.19813 -0.423267 -1.18513 8.1698 14.726 -1.1765 23.4658 -0.0 -0.0 -0.0 0.0 -0.0 3.19229 -3.28716 17.2094 -14.3691 -0.320207 -2.1761 14.7631 28.3036 2.54198 30.462 -0.0 -0.0 0.0 0.0 0.0 
